<?xml version="1.0" standalone="no"?>
<!DOCTYPE svg PUBLIC "-//W3C//DTD SVG 20010904//EN"
 "http://www.w3.org/TR/2001/REC-SVG-20010904/DTD/svg10.dtd">
<svg version="1.0" xmlns="http://www.w3.org/2000/svg"
 width="300.000000pt" height="120.000000pt" viewBox="0 0 300.000000 120.000000"
 preserveAspectRatio="xMidYMid meet">
<metadata>
Created by potrace 1.10, written by Peter Selinger 2001-2011
</metadata>
<g transform="translate(0.000000,120.000000) scale(0.100000,-0.100000)"
fill="#000000" stroke="none">
<path d="M213 990 c-109 -51 -189 -155 -201 -258 -5 -42 -4 -46 11 -34 9 8 19
24 23 35 46 153 164 247 310 247 68 0 135 -18 149 -39 8 -13 -16 -51 -32 -51
-7 0 -13 -6 -13 -12 0 -7 -13 -32 -28 -56 -57 -85 -89 -120 -282 -308 -19 -19
-40 -34 -47 -34 -6 0 -28 35 -49 78 -34 67 -39 74 -42 49 -5 -39 23 -117 57
-158 26 -30 31 -32 44 -19 8 8 54 60 103 114 49 55 99 111 112 125 12 15 41
49 65 77 23 28 73 86 111 128 79 87 79 87 -22 126 -83 32 -190 28 -269 -10z"/>
<path d="M454 759 c-76 -88 -87 -107 -57 -91 10 6 25 22 33 37 9 18 20 25 32
22 10 -3 16 -2 13 3 -3 4 5 19 16 34 27 34 47 24 79 -41 17 -35 25 -70 28
-129 4 -72 2 -85 -23 -135 -74 -144 -152 -192 -316 -193 -55 0 -139 27 -139
46 0 20 76 137 87 133 7 -2 10 2 7 9 -3 8 5 23 17 35 12 11 20 23 18 26 -3 2
-49 -44 -102 -103 -110 -121 -109 -112 -7 -161 80 -38 191 -37 275 2 76 36
138 96 178 172 39 77 49 195 22 277 -16 49 -71 138 -85 138 -4 0 -38 -36 -76
-81z"/>
<path d="M857 768 c-109 -29 -159 -174 -94 -269 36 -52 89 -74 182 -74 114 0
115 1 115 83 0 62 2 70 23 80 18 9 7 11 -57 11 -44 1 -76 -2 -72 -6 4 -5 12
-9 17 -9 5 -1 14 -2 19 -3 6 0 10 -30 10 -66 l0 -65 -47 0 c-63 0 -109 28
-133 83 -36 79 -18 172 39 201 62 32 165 10 177 -38 10 -42 24 -29 24 23 l0
48 -61 7 c-76 7 -94 7 -142 -6z"/>
<path d="M325 612 c-57 -64 -75 -93 -31 -52 39 36 81 89 75 94 -2 1 -22 -18
-44 -42z"/>
<path d="M1240 621 c0 -5 5 -11 11 -13 10 -3 0 -93 -17 -149 -3 -13 5 -16 41
-17 37 -2 47 2 60 22 9 14 15 37 13 53 -3 25 -7 28 -40 28 -29 0 -37 4 -33 15
19 65 18 70 -9 70 -14 0 -26 -4 -26 -9z m82 -116 c-4 -34 -18 -55 -38 -55 -19
0 -26 33 -14 64 7 20 16 27 33 24 18 -2 21 -8 19 -33z"/>
<path d="M1610 621 c0 -5 5 -11 10 -13 9 -3 3 -59 -15 -144 -4 -18 0 -21 40
-22 35 -2 47 2 59 20 33 46 10 95 -39 86 -20 -4 -25 -2 -21 11 18 67 17 71 -9
71 -14 0 -25 -4 -25 -9z m80 -115 c0 -37 -21 -62 -45 -52 -30 11 -8 86 25 86
16 0 20 -7 20 -34z"/>
<path d="M1785 620 c-3 -5 1 -10 9 -10 9 0 16 -2 16 -5 0 -4 -15 -82 -25 -132
-3 -12 -13 -24 -23 -26 -9 -3 6 -5 33 -5 28 0 42 2 31 5 -15 4 -17 11 -12 36
4 18 10 52 13 75 3 24 12 46 19 49 8 3 14 9 14 14 0 12 -67 11 -75 -1z"/>
<path d="M1876 604 c-9 -34 -1 -42 14 -15 6 12 20 21 31 21 17 0 20 -5 16 -22
-3 -13 -9 -47 -13 -76 -5 -41 -12 -56 -28 -62 -16 -7 -8 -9 29 -8 28 0 42 2
33 5 -21 5 -21 7 -4 93 10 55 15 66 34 68 17 3 22 -2 22 -17 0 -12 5 -21 10
-21 6 0 10 14 10 30 l0 30 -74 0 c-71 0 -74 -1 -80 -26z"/>
<path d="M2089 609 c-29 -29 -21 -60 23 -84 21 -11 38 -27 38 -36 0 -43 -72
-53 -78 -11 -5 32 -22 27 -22 -7 0 -23 5 -30 27 -34 30 -6 73 8 85 26 19 29 7
57 -32 82 -34 21 -39 29 -30 44 11 21 37 34 52 25 5 -3 13 -16 18 -28 7 -19 9
-19 15 -3 12 30 -2 47 -40 47 -22 0 -43 -8 -56 -21z"/>
<path d="M2574 609 c-10 -17 13 -36 27 -22 12 12 4 33 -11 33 -5 0 -12 -5 -16
-11z"/>
<path d="M1127 543 c-12 -11 -7 -35 6 -30 6 2 11 10 10 16 -2 6 6 11 18 11 33
0 18 -31 -21 -44 -25 -8 -35 -17 -35 -31 0 -17 7 -20 55 -22 30 0 49 1 42 4
-9 3 -11 18 -6 54 l7 49 -35 0 c-19 0 -38 -3 -41 -7z m43 -62 c0 -12 -29 -35
-36 -28 -11 10 5 37 21 37 8 0 15 -4 15 -9z"/>
<path d="M1387 543 c-15 -15 -5 -44 18 -55 32 -14 32 -38 1 -38 -15 0 -26 7
-29 18 -3 12 -5 11 -6 -6 -1 -21 3 -23 37 -20 30 2 38 7 40 25 2 16 -4 26 -22
35 -14 6 -26 17 -26 25 0 19 30 16 46 -4 12 -17 13 -16 14 5 0 18 -5 22 -33
22 -19 0 -37 -3 -40 -7z"/>
<path d="M1492 537 c-7 -8 -9 -17 -5 -20 11 -12 23 -8 23 8 0 9 9 15 21 15 30
0 20 -34 -11 -38 -32 -5 -50 -20 -50 -42 0 -16 9 -18 56 -18 31 0 51 4 45 8
-7 4 -11 26 -9 51 3 43 2 44 -28 47 -17 2 -36 -3 -42 -11z m48 -56 c0 -14 -28
-33 -39 -27 -16 10 -1 36 20 36 10 0 19 -4 19 -9z"/>
<path d="M2218 533 c-23 -27 -29 -52 -18 -74 18 -32 90 -20 90 15 0 5 -8 2
-18 -7 -28 -25 -52 -22 -52 8 0 23 4 25 40 25 40 0 45 5 34 34 -8 22 -57 20
-76 -1z m52 -8 c0 -8 -9 -15 -20 -15 -20 0 -26 11 -13 23 12 13 33 7 33 -8z"/>
<path d="M2328 542 c17 -5 5 -73 -16 -89 -13 -11 -10 -13 24 -13 25 0 34 3 26
9 -10 6 -11 17 -4 42 7 27 13 33 30 32 12 -2 22 2 22 7 0 6 4 10 9 10 5 0 14
-22 21 -50 7 -27 16 -50 20 -50 4 0 22 23 40 50 19 29 40 50 50 50 15 0 16 -6
10 -41 -4 -23 -14 -45 -21 -50 -9 -6 0 -9 26 -9 26 0 35 3 27 9 -10 6 -12 21
-7 55 l7 46 -48 0 c-26 0 -45 -3 -41 -6 9 -9 -22 -66 -32 -59 -14 8 -19 54 -7
59 6 2 -25 4 -69 4 -44 -1 -74 -3 -67 -6z"/>
<path d="M2631 524 c-24 -30 -25 -38 -11 -65 18 -32 90 -20 90 15 0 5 -8 2
-18 -7 -28 -26 -52 -22 -52 9 0 14 5 34 10 45 13 23 40 26 40 4 0 -8 7 -15 16
-15 31 0 10 35 -22 38 -25 2 -37 -3 -53 -24z"/>
<path d="M2746 528 c-19 -27 -21 -59 -4 -76 24 -24 88 -9 88 22 0 5 -8 2 -18
-7 -28 -25 -52 -22 -52 8 0 23 4 25 40 25 26 0 40 5 40 13 0 40 -69 51 -94 15z
m64 -3 c0 -10 -10 -15 -26 -15 -22 0 -25 2 -14 15 7 8 19 15 26 15 8 0 14 -7
14 -15z"/>
<path d="M2872 538 c-20 -20 -14 -37 18 -53 32 -17 32 -35 -1 -35 -10 0 -19 7
-19 15 0 8 -4 15 -10 15 -5 0 -10 -9 -10 -20 0 -16 7 -20 34 -20 59 0 76 52
21 66 -29 7 -33 22 -9 31 10 4 22 -1 29 -11 12 -15 13 -15 18 4 4 17 0 20 -27
20 -18 0 -37 -5 -44 -12z"/>
<path d="M680 348 c0 -19 1151 -19 1157 0 4 9 -116 12 -576 12 -458 0 -581 -3
-581 -12z"/>
<path d="M2012 348 c4 -10 107 -14 461 -16 405 -2 457 -1 457 13 0 13 -53 15
-461 15 -364 0 -460 -3 -457 -12z"/>
</g>
</svg>
